<svg xmlns="http://www.w3.org/2000/svg" version="1.1" xmlns:xlink="http://www.w3.org/1999/xlink" xmlns:svgjs="http://svgjs.dev/svgjs" width="200" height="100" preserveAspectRatio="none" viewBox="0 0 200 100">
    <g mask="url(&quot;#SvgjsMask1007&quot;)" fill="none">
        <path d="M29.34175069578589 23.037984925071406L7.5052595621571925 11.427316634928777-4.105408727985434 33.26380776855748 17.731082405643264 44.874476058700104z" fill="rgba(255, 254, 254, 0.5)" class="triangle-float2"></path>
        <path d="M208.69521939142086-3.8574810331678315L186.39272429894712-7.389849236230006 182.86035609588495 14.912645856243737 205.1628511883587 18.445014059305908z" fill="rgba(255, 254, 254, 0.5)" class="triangle-float3"></path>
        <path d="M42.87409726721272 62.22862876272553L14.207349887542247 70.99293297431545 22.971654099132166 99.65968035398592 51.63840147880264 90.895376142396z" fill="rgba(255, 254, 254, 0.5)" class="triangle-float3"></path>
        <path d="M208.86050375163762 47.236549283854025L194.0734588294678 40.34123699516425 187.17814654077802 55.12828191733408 201.96519146294784 62.02359420602385z" fill="rgba(255, 254, 254, 0.5)" class="triangle-float2"></path>
        <path d="M24.63297957260773 46.725373667565144L30.216972267046394 62.06726750593495 45.5588661054162 56.48327481149629 39.97487341097754 41.14138097312648z" fill="rgba(255, 254, 254, 0.5)" class="triangle-float3"></path>
        <path d="M104.31906566838552 6.830008658703771L106.86678643799023 35.95059030811698 135.98736808740344 33.40286953851227 133.43964731779874 4.282287889099058z" fill="rgba(255, 254, 254, 0.5)" class="triangle-float3"></path>
        <path d="M21.258136734442424 63.33653087721084L4.752127805887966 75.77470075635594 17.19029768503306 92.28070968491039 33.69630661358752 79.8425398057653z" fill="rgba(255, 254, 254, 0.5)" class="triangle-float3"></path>
        <path d="M63.43373144154958 53.726742367486835L52.54843781261518 33.25448255648409 32.07617800161243 44.139776185418505 42.96147163054684 64.61203599642124z" fill="rgba(255, 254, 254, 0.5)" class="triangle-float3"></path>
        <path d="M138.78506080281227 59.157558257905926L134.1756629740867 75.23243882321242 150.2505435393932 79.84183665193798 154.85994136811877 63.766956086631495z" fill="rgba(255, 254, 254, 0.5)" class="triangle-float2"></path>
        <path d="M29.653901095724216 17.679891051672897L25.513036098769213 32.120803452049024 39.95394849914534 36.26166844900403 44.09481349610034 21.8207560486279z" fill="rgba(255, 254, 254, 0.5)" class="triangle-float1"></path>
        <path d="M49.36357054747195 80.50154094492808L73.67764020947837 91.8393778292358 85.01547709378609 67.52530816722938 60.70140743177967 56.18747128292166z" fill="rgba(255, 254, 254, 0.5)" class="triangle-float3"></path>
        <path d="M96.23943922609845 51.20697411576866L76.99676535549803 60.59225325360527 86.38204449333463 79.8349271242057 105.62471836393507 70.44964798636909z" fill="rgba(255, 254, 254, 0.5)" class="triangle-float1"></path>
        <path d="M54.69449480766728 17.96321975628499L77.73144454397206 24.568958795127976 84.33718358281504 1.5320090588231992 61.30023384651027-5.073729980019788z" fill="rgba(255, 254, 254, 0.5)" class="triangle-float3"></path>
        <path d="M165.6313124943798 113.07481033608502L191.65704305321665 105.11794599687234 183.70017871400398 79.0922154380355 157.67444815516714 87.04907977724818z" fill="rgba(255, 254, 254, 0.5)" class="triangle-float1"></path>
    </g>
    <defs>
        <mask id="SvgjsMask1007">
            <rect width="200" height="100" fill="#ffffff"></rect>
        </mask>
        <style>
            @keyframes float1 {
                    0%{transform: translate(0, 0)}
                    50%{transform: translate(-10px, 0)}
                    100%{transform: translate(0, 0)}
                }

                .triangle-float1 {
                    animation: float1 5s infinite;
                }

                @keyframes float2 {
                    0%{transform: translate(0, 0)}
                    50%{transform: translate(-5px, -5px)}
                    100%{transform: translate(0, 0)}
                }

                .triangle-float2 {
                    animation: float2 4s infinite;
                }

                @keyframes float3 {
                    0%{transform: translate(0, 0)}
                    50%{transform: translate(0, -10px)}
                    100%{transform: translate(0, 0)}
                }

                .triangle-float3 {
                    animation: float3 6s infinite;
                }
        </style>
    </defs>
</svg>