<svg xmlns="http://www.w3.org/2000/svg" version="1.1" xmlns:xlink="http://www.w3.org/1999/xlink" xmlns:svgjs="http://svgjs.dev/svgjs" width="200" height="100" preserveAspectRatio="none" viewBox="0 0 200 100">
    <g mask="url(&quot;#SvgjsMask1009&quot;)" fill="none">
        <path d="M159.5211424415824 7.183987584870136L143.1828373159951 25.32951372844536 161.3283634595703 41.66781885403268 177.66666858515765 23.522292710457453z" fill="rgba(0, 0, 0, 0.5)" class="triangle-float1"></path>
        <path d="M151.09686862041758 82.02908215628312L137.91056459743794 60.083386922802035 115.96486936395686 73.26969094578166 129.15117338693648 95.21538617926277z" fill="rgba(0, 0, 0, 0.5)" class="triangle-float3"></path>
        <path d="M132.0485853543905 15.259252564495306L153.37080490128938 16.003840878345006 154.11539321513905-5.3183786685538585 132.7931736682402-6.062966982403559z" fill="rgba(0, 0, 0, 0.5)" class="triangle-float3"></path>
        <path d="M194.93688076079954 41.236507477564075L197.98407921645506 25.560030425062912 182.3076021639539 22.51283196940739 179.26040370829838 38.18930902190855z" fill="rgba(0, 0, 0, 0.5)" class="triangle-float1"></path>
        <path d="M58.73684639091249 35.137633947202694L72.7537971363081 13.553422594853313 51.16958578395871-0.463528150542281 37.152635038563105 21.120683201807097z" fill="rgba(0, 0, 0, 0.5)" class="triangle-float1"></path>
        <path d="M17.30477886747818 49.56939161555157L-10.862824248149636 57.64632183684326-2.785894026857939 85.81392495247108 25.381709088769878 77.73699473117938z" fill="rgba(0, 0, 0, 0.5)" class="triangle-float1"></path>
        <path d="M147.15322989482456 75.28170313069134L167.11227035763716 82.54619976366985 174.37676699061566 62.58715930085724 154.41772652780307 55.32266266787873z" fill="rgba(0, 0, 0, 0.5)" class="triangle-float2"></path>
        <path d="M149.10647732902717 98.18418182458453L143.73273719935256 80.60746985038503 126.15602522515306 85.98120998005965 131.52976535482767 103.55792195425914z" fill="rgba(0, 0, 0, 0.5)" class="triangle-float2"></path>
        <path d="M60.925158829087586 22.305169224492097L81.07087943627332 4.165880914487712 62.93159112626894-15.979839692698029 42.785870519083204 2.15944861730636z" fill="rgba(0, 0, 0, 0.5)" class="triangle-float1"></path>
        <path d="M165.34968306736963 74.11009842260323L171.99464918356728 95.84480324350675 193.7293540044708 89.1998371273091 187.08438788827314 67.46513230640558z" fill="rgba(0, 0, 0, 0.5)" class="triangle-float2"></path>
        <path d="M143.13178748302386 84.23453609303107L157.43699301571115 96.66986154433143 169.8723184670115 82.36465601164414 155.5671129343242 69.92933056034379z" fill="rgba(0, 0, 0, 0.5)" class="triangle-float2"></path>
        <path d="M100.84003737274396 74.66327831743024L87.38125847312618 88.60025185458935 101.31823201028529 102.05903075420713 114.77701090990307 88.12205721704802z" fill="rgba(0, 0, 0, 0.5)" class="triangle-float2"></path>
        <path d="M71.80688173620253 103.94602147197423L88.9195191299604 90.57616384460984 75.54966150259601 73.46352645085196 58.43702410883813 86.83338407821635z" fill="rgba(0, 0, 0, 0.5)" class="triangle-float1"></path>
        <path d="M27.174587226361297 54.56142699247487L25.316428247434423 69.69491743510687 40.44991869006642 71.55307641403374 42.30807766899329 56.419585971401744z" fill="rgba(0, 0, 0, 0.5)" class="triangle-float1"></path>
    </g>
    <defs>
        <mask id="SvgjsMask1009">
            <rect width="200" height="100" fill="#ffffff"></rect>
        </mask>
        <style>
            @keyframes float1 {
                    0%{transform: translate(0, 0)}
                    50%{transform: translate(-10px, 0)}
                    100%{transform: translate(0, 0)}
                }

                .triangle-float1 {
                    animation: float1 5s infinite;
                }

                @keyframes float2 {
                    0%{transform: translate(0, 0)}
                    50%{transform: translate(-5px, -5px)}
                    100%{transform: translate(0, 0)}
                }

                .triangle-float2 {
                    animation: float2 4s infinite;
                }

                @keyframes float3 {
                    0%{transform: translate(0, 0)}
                    50%{transform: translate(0, -10px)}
                    100%{transform: translate(0, 0)}
                }

                .triangle-float3 {
                    animation: float3 6s infinite;
                }
        </style>
    </defs>
</svg>