<svg xmlns="http://www.w3.org/2000/svg" version="1.1" xmlns:xlink="http://www.w3.org/1999/xlink" xmlns:svgjs="http://svgjs.dev/svgjs" width="200" height="100" preserveAspectRatio="none" viewBox="0 0 200 100">
    <g mask="url(&quot;#SvgjsMask1012&quot;)" fill="none">
        <path d="M123.02584928871156 4.779954240559156L109.83948197544271-8.874928841107838 96.18459889377573 4.311438472161002 109.37096620704456 17.966321553827996z" fill="rgba(62, 38, 18, 0.4)" class="triangle-float2"></path>
        <path d="M2.3579211989949433 108.39565860395341L21.797573877044503 103.18681936772852 16.588734640819613 83.74716668967896-2.8509180372299454 88.95600592590385z" fill="rgba(62, 38, 18, 0.4)" class="triangle-float2"></path>
        <path d="M25.272705139661646 44.852522310093576L23.44246369309585 62.26610647194413 40.856047854946404 64.09634791850993 42.686289301512204 46.68276375665938z" fill="rgba(62, 38, 18, 0.4)" class="triangle-float3"></path>
        <path d="M122.49813738985105 2.164521799489008L128.62989442611342 31.012170576295276 157.4775432029197 24.8804135400329 151.34578616665732-3.9672352367733676z" fill="rgba(62, 38, 18, 0.4)" class="triangle-float1"></path>
        <path d="M174.04305754172964 8.963434137784963L162.09560750406146-2.9840158998832162 150.1481574663933 8.963434137784967 162.09560750406146 20.91088417545315z" fill="rgba(62, 38, 18, 0.4)" class="triangle-float3"></path>
        <path d="M74.1068128502376 59.816845082678L93.3343171378431 46.847729683063804 80.3652017382289 27.62022539545832 61.137697450623406 40.58934079507251z" fill="rgba(62, 38, 18, 0.4)" class="triangle-float2"></path>
        <path d="M5.691987825790173 95.2951899877584L16.056376977215926 109.04919894041672 29.81038592987423 98.68480978899096 19.445996778448478 84.93080083633265z" fill="rgba(62, 38, 18, 0.4)" class="triangle-float1"></path>
        <path d="M181.70203757707682 9.836133180555656L179.28824168104586-5.403974314126167 164.04813418636405-2.990178418095214 166.46193008239499 12.249929076586609z" fill="rgba(62, 38, 18, 0.4)" class="triangle-float2"></path>
        <path d="M60.41774356798152-11.419753993229648L39.369596152526505 3.8726202398245384 54.66197038558069 24.920767655279548 75.71011780103571 9.628393422225365z" fill="rgba(62, 38, 18, 0.4)" class="triangle-float2"></path>
        <path d="M144.32356103571817 39.779037523016264L132.6804821298549 26.848088379020744 119.74953298585939 38.49116728488401 131.39261189172265 51.42211642887953z" fill="rgba(62, 38, 18, 0.4)" class="triangle-float1"></path>
        <path d="M145.80591147212115 87.50268105210715L150.96286955912223 72.52578728012037 135.98597578713543 67.36882919311932 130.8290177001344 82.34572296510609z" fill="rgba(62, 38, 18, 0.4)" class="triangle-float2"></path>
        <path d="M54.06466778069877 77.8506176709994L40.154629906218815 98.47309689423729 60.77710912945671 112.38313476871724 74.68714700393666 91.76065554547935z" fill="rgba(62, 38, 18, 0.4)" class="triangle-float2"></path>
        <path d="M117.6508317185304 88.65542335262292L137.94163801295002 81.6687384495425 130.9549531098696 61.37793215512288 110.66414681544998 68.3646170582033z" fill="rgba(62, 38, 18, 0.4)" class="triangle-float3"></path>
        <path d="M31.918280579357422 54.361680109318236L46.441632123540856 43.417549732132144 35.49750174635476 28.89419818794871 20.97415020217133 39.8383285651348z" fill="rgba(62, 38, 18, 0.4)" class="triangle-float1"></path>
    </g>
    <defs>
        <mask id="SvgjsMask1012">
            <rect width="200" height="100" fill="#ffffff"></rect>
        </mask>
        <style>
            @keyframes float1 {
                    0%{transform: translate(0, 0)}
                    50%{transform: translate(-10px, 0)}
                    100%{transform: translate(0, 0)}
                }

                .triangle-float1 {
                    animation: float1 5s infinite;
                }

                @keyframes float2 {
                    0%{transform: translate(0, 0)}
                    50%{transform: translate(-5px, -5px)}
                    100%{transform: translate(0, 0)}
                }

                .triangle-float2 {
                    animation: float2 4s infinite;
                }

                @keyframes float3 {
                    0%{transform: translate(0, 0)}
                    50%{transform: translate(0, -10px)}
                    100%{transform: translate(0, 0)}
                }

                .triangle-float3 {
                    animation: float3 6s infinite;
                }
        </style>
    </defs>
</svg>